<svg width="39" height="39" viewBox="0 0 39 39" fill="none" xmlns="http://www.w3.org/2000/svg">
<rect x="0.90625" y="0.25" width="38" height="38" rx="5.42857" fill="black"/>
<path d="M10.954 8.6789C10.954 8.74881 10.9809 8.81738 11.0306 8.86712C11.1597 8.99888 11.2914 9.13063 11.4245 9.26374C14.9242 12.7405 17.6951 14.4399 19.896 14.4601C22.0874 14.4802 24.888 12.7714 28.4588 9.2355C28.5624 9.13332 28.6632 9.03249 28.7627 8.93031L28.7882 8.90477C28.838 8.85368 28.8662 8.78645 28.8662 8.7152C28.8662 8.70713 28.8662 8.69906 28.8662 8.691C28.8595 8.61167 28.8178 8.54042 28.7519 8.49471C28.0864 8.03087 27.3886 7.61947 26.6774 7.2726C26.5753 7.22285 26.4529 7.24302 26.3709 7.32234C23.526 10.1094 21.2364 11.638 19.9229 11.6259C18.5757 11.6138 16.2794 10.0744 13.4574 7.29276C13.3767 7.21344 13.2543 7.19327 13.1522 7.24167C12.4423 7.58451 11.7418 7.99322 11.0709 8.45572C11.0051 8.50143 10.9634 8.57268 10.9567 8.65201C10.9567 8.66007 10.9567 8.66949 10.9567 8.67755L10.954 8.6789Z" fill="url(#paint0_linear_4071_3858)"/>
<path d="M6.81444 15.0405C6.87498 15.0056 6.94781 14.9946 7.01576 15.0128C7.1944 15.0587 7.37438 15.1069 7.5562 15.1556C12.317 16.448 15.1742 17.998 16.2921 19.894C17.4053 21.7817 17.3257 25.0615 16.0489 29.9219C16.0122 30.0626 15.9753 30.2004 15.9365 30.3376L15.9272 30.3725C15.9078 30.4412 15.8637 30.4992 15.802 30.5348C15.795 30.5389 15.788 30.5429 15.781 30.5469C15.709 30.5808 15.6264 30.5803 15.5539 30.5461C14.8195 30.2017 14.1143 29.8031 13.4583 29.3606C13.3641 29.297 13.3204 29.1809 13.3481 29.0703C14.3393 25.213 14.5183 22.4658 13.8511 21.3343C13.167 20.1737 10.6857 18.9547 6.8657 17.9016C6.75667 17.8714 6.67803 17.7755 6.66886 17.6628C6.61083 16.8767 6.61455 16.0657 6.67964 15.2534C6.68629 15.1735 6.72716 15.1018 6.79249 15.0563C6.79948 15.0523 6.80763 15.0476 6.81462 15.0435L6.81444 15.0405Z" fill="url(#paint1_linear_4071_3858)"/>
<path d="M24.0429 30.5529C23.9823 30.5179 23.9364 30.4603 23.9182 30.3924C23.8686 30.2147 23.8204 30.0348 23.7716 29.8529C22.5105 25.0838 22.4242 21.8344 23.5072 19.9183C24.5855 18.0103 27.4656 16.4394 32.3133 15.1149C32.4535 15.0763 32.5912 15.0394 32.7295 15.0044L32.7644 14.995C32.8335 14.9775 32.9058 14.9866 32.9675 15.0223C32.9745 15.0263 32.9815 15.0303 32.9885 15.0344C33.0538 15.0799 33.0947 15.1516 33.1013 15.2315C33.1703 16.0397 33.1777 16.8497 33.1225 17.6391C33.1145 17.7525 33.0358 17.8483 32.9261 17.8797C29.09 18.9499 26.6214 20.1685 25.9751 21.3121C25.312 22.4848 25.497 25.2432 26.495 29.0779C26.5233 29.1875 26.4796 29.3035 26.3866 29.3678C25.7348 29.8111 25.0306 30.2134 24.2946 30.5632C24.2221 30.5974 24.1395 30.5978 24.0675 30.564C24.0605 30.56 24.0523 30.5553 24.0454 30.5512L24.0429 30.5529Z" fill="url(#paint2_linear_4071_3858)"/>
<defs>
<linearGradient id="paint0_linear_4071_3858" x1="8.54445" y1="10.8379" x2="28.8662" y2="10.8379" gradientUnits="userSpaceOnUse">
<stop stop-color="#E8312C"/>
<stop offset="0.509615" stop-color="#E2335A"/>
<stop offset="1" stop-color="#F77216"/>
</linearGradient>
<linearGradient id="paint1_linear_4071_3858" x1="7.47945" y1="11.8743" x2="17.6403" y2="29.4735" gradientUnits="userSpaceOnUse">
<stop stop-color="#E8312C"/>
<stop offset="0.509615" stop-color="#E2335A"/>
<stop offset="1" stop-color="#F77216"/>
</linearGradient>
<linearGradient id="paint2_linear_4071_3858" x1="20.9683" y1="31.5601" x2="31.1292" y2="13.9609" gradientUnits="userSpaceOnUse">
<stop stop-color="#E8312C"/>
<stop offset="0.509615" stop-color="#E2335A"/>
<stop offset="1" stop-color="#F77216"/>
</linearGradient>
</defs>
</svg>
